<svg id="Слой_1" height="512" viewBox="0 0 512 512.01" width="512" xmlns="http://www.w3.org/2000/svg" data-name="Слой 1"><path d="m256 512c141.38 0 256-114.63 256-256s-114.61-256-256-256-256 114.64-256 256 114.62 256 256 256z" fill="#f0f0f0"/><g fill-rule="evenodd"><path d="m474.17 122.33h-229.68v-66.85h170.66a255.89 255.89 0 0 1 59.02 66.85zm37.83 133.67h-267.37v-66.83h258.56a256.28 256.28 0 0 1 8.81 66.83zm-256 256a254.3 254.3 0 0 0 159.29-55.6h-318.57a254.19 254.19 0 0 0 159.28 55.6zm218.45-122.3h-436.9a253.31 253.31 0 0 1 -28.73-66.84h494.36a253.17 253.17 0 0 1 -28.73 66.84z" fill="#d80027"/><path d="m118.85 39.84h-.23v.16zm0 0h23.15l-21.81 15.65 8.25 25.6-21.76-15.65-21.62 15.65 7.11-22.09a256.08 256.08 0 0 0 -49.49 55.5h7.54l-13.8 10-6.26 11 6.54 20.34-12.37-9-8.53 19.86 7.11 22.3h27l-21.46 15.81 8.25 25.6-21.76-15.65-12.8 9.38a237.13 237.13 0 0 0 -2.14 31.86h256v-256a254.85 254.85 0 0 0 -137.15 39.84zm9.54 190.44.19.15h-.14zm-8.21-25.46 8.21 25.46-21.72-15.5-21.76 15.65 8.25-25.6-21.76-15.65h27l8.25-25.6 8.25 25.6h27zm.15-74.52 8.25 25.6-21.76-15.65-21.76 15.65 8.25-25.6-21.76-15.65h27l8.25-25.6 8.25 25.6h27zm78.36 84.48 21.76 15.65-8.25-25.6 21.8-15.65h-27l-8.25-25.6-8.25 25.6h-27l21.76 15.65-8.25 25.6zm13.51-84.48 8.25 25.6-21.76-15.65-21.76 15.65 8.25-25.6-21.76-15.65h27l8.25-25.6 8.25 25.6h27zm8.25-48.93-8.25-25.6 21.8-15.65h-27l-8.25-25.6-8.25 25.6h-27l21.76 15.65-8.25 25.6 21.76-15.65z" fill="#0052b4"/></g></svg>